<?xml version="1.0" encoding="iso-8859-1"?>
<!-- Generator: Adobe Illustrator 19.0.0, SVG Export Plug-In . SVG Version: 6.00 Build 0)  -->
<svg version="1.1" id="Capa_1" xmlns="http://www.w3.org/2000/svg" xmlns:xlink="http://www.w3.org/1999/xlink" x="0px" y="0px"
	 viewBox="0 0 464 464" style="enable-background:new 0 0 464 464;" xml:space="preserve">
<g>
	<path style="fill:#4D4D4D;" d="M130.336,408l-12.8,39.264c-2.218,6.666,1.388,13.867,8.053,16.085
		c1.293,0.43,2.648,0.65,4.011,0.651c4.004,0,7.774-1.885,10.176-5.088l25.52-34.248"/>
	<path style="fill:#4D4D4D;" d="M333.336,408l13.064,39.264c2.218,6.666-1.387,13.867-8.053,16.086
		c-1.273,0.424-2.605,0.643-3.947,0.65c-4.004,0-7.774-1.885-10.176-5.088L298.704,423"/>
	<path style="fill:#4D4D4D;" d="M98.345,109.659l11.314-11.314l32.001,32.001l-11.314,11.314L98.345,109.659z"/>
	<path style="fill:#4D4D4D;" d="M322.346,130.34l32.001-32.001l11.314,11.314l-32.001,32.001L322.346,130.34z"/>
</g>
<circle style="fill:#55D08F;" cx="232" cy="272" r="176"/>
<path style="fill:#4D4D4D;" d="M224,32h16v64h-16V32z"/>
<circle style="fill:#F2F2F2;" cx="232" cy="272" r="136"/>
<g>
	<path style="fill:#CDA349;" d="M411.464,172.264c28.833-33.431,25.105-83.907-8.326-112.74s-83.907-25.105-112.74,8.326
		c-0.822,0.953-1.622,1.926-2.398,2.917C340.215,88.303,384.159,124.427,411.464,172.264z"/>
	<path style="fill:#CDA349;" d="M52.536,172.264c-28.833-33.431-25.105-83.907,8.327-112.739s83.907-25.105,112.74,8.327
		c0.822,0.953,1.622,1.926,2.398,2.917C123.785,88.303,79.841,124.427,52.536,172.264z"/>
</g>
<path style="fill:#C3922E;" d="M192,0h80v32h-80V0z"/>
<g>
	<circle style="fill:#ED1C24;" cx="232" cy="272" r="21.336"/>
	<path style="fill:#ED1C24;" d="M247.312,279.312l-44,44c-6.248,6.246-16.376,6.246-22.624,0c-6.246-6.248-6.246-16.376,0-22.624
		l33.536-33.544L216,264v-80c0-8.837,7.163-16,16-16c8.837,0,16,7.163,16,16v95.312"/>
</g>
<g>
</g>
<g>
</g>
<g>
</g>
<g>
</g>
<g>
</g>
<g>
</g>
<g>
</g>
<g>
</g>
<g>
</g>
<g>
</g>
<g>
</g>
<g>
</g>
<g>
</g>
<g>
</g>
<g>
</g>
</svg>
