<?xml version="1.0" encoding="iso-8859-1"?>
<!-- Generator: Adobe Illustrator 19.0.0, SVG Export Plug-In . SVG Version: 6.00 Build 0)  -->
<svg xmlns="http://www.w3.org/2000/svg" xmlns:xlink="http://www.w3.org/1999/xlink" version="1.1" id="Capa_1" x="0px" y="0px" viewBox="0 0 377.84 377.84" style="enable-background:new 0 0 377.84 377.84;" xml:space="preserve" width="512px" height="512px">
<g>
	<g>
		<rect x="64.76" y="47.28" width="201.36" height="58" fill="#b8b7bc"/>
	</g>
</g>
<g>
	<g>
		<path d="M369.72,50.56h-18.24v216.4c0.11,4.418-3.382,8.09-7.8,8.2c-4.418,0.11-8.09-3.382-8.2-7.8c0,0,0,0,0-0.4V4.88    c-1.252-2.956-4.15-4.877-7.36-4.88h-320c-4.418,0-8,3.582-8,8v318.48c0,28.365,22.995,51.36,51.36,51.36h274.88    c28.365,0,51.36-22.995,51.36-51.36V58.56C377.72,54.142,374.138,50.56,369.72,50.56z M274.12,306.96H56.76c-4.418,0-8-3.582-8-8    s3.582-8,8-8h217.36c4.418,0,8,3.582,8,8S278.538,306.96,274.12,306.96z M281.72,266.96c0,4.418-3.582,8-8,8H56.76    c-4.418,0-8-3.582-8-8s3.582-8,8-8h217.36c4.418,0,8,3.582,8,8H281.72z M274.12,242.96h-0.4H56.76c-4.418,0-8-3.582-8-8    s3.582-8,8-8h217.36c4.418,0,8,3.582,8,8S278.538,242.96,274.12,242.96z M274.12,210.96h-0.4H56.76c-4.418,0-8-3.582-8-8    s3.582-8,8-8h217.36c4.418,0,8,3.582,8,8S278.538,210.96,274.12,210.96z M274.12,160.96h-0.4H89.48c-4.418,0-8-3.582-8-8    s3.582-8,8-8h184.64c4.418,0,8,3.582,8,8S278.538,160.96,274.12,160.96z M282.12,113.28c0,4.418-3.582,8-8,8l-0.4-0.32H56.76    c-4.418,0-8-3.582-8-8V39.28c0-4.418,3.582-8,8-8h217.36c4.418,0,8,3.582,8,8V113.28z" fill="#b8b7bc"/>
	</g>
</g>
<g>
</g>
<g>
</g>
<g>
</g>
<g>
</g>
<g>
</g>
<g>
</g>
<g>
</g>
<g>
</g>
<g>
</g>
<g>
</g>
<g>
</g>
<g>
</g>
<g>
</g>
<g>
</g>
<g>
</g>
</svg>
